<svg xmlns="http://www.w3.org/2000/svg" version="1.1" xmlns:xlink="http://www.w3.org/1999/xlink" xmlns:svgjs="http://svgjs.dev/svgjs" width="100%" height="100%" viewBox="0 0 1000 600"><rect width="1000" height="600" x="0" y="0" fill="green"/><g><circle r="166.66666666666666" cx="348.16483561197913" cy="370.38703667491427" fill="white" transform="matrix(0.6887121050007964,0,0,0.6887121050007964,0,44.90994398622087)"/><path d="M292.0444273164231 445.38700793075435L292.0444273164231 438.3232961473555Q300.17659970571424 437.90778368950845 303.14454583319275 434.58368402673256Q306.14217142194605 431.28926382523144 306.4686454959687 425.4127304928239Q306.7951195699913 419.53619716041646 306.7951195699913 412.0569729191706L306.7951195699913 412.0569729191706L306.7951195699913 319.724168893314Q306.7951195699913 315.45032646974494 307.00287579891483 311.5029581201985Q307.2106320278383 307.5555897706521 307.41838825676183 304.3502079529753L307.41838825676183 304.3502079529753Q303.58973775231453 304.5579641818988 299.73140778659246 304.76572041082227Q295.90275728214516 305.0031561010206 292.0444273164231 305.2109123299441L292.0444273164231 305.2109123299441L292.0444273164231 295.80252310583717Q303.381981523391 295.5947668769137 315.34280441712946 295.47604903181457Q327.30362731086785 295.3870106479902 339.7096421237281 295.3870106479902L339.7096421237281 295.3870106479902Q360.4259060935281 295.3870106479902 374.5236501990511 300.07636552940625Q388.621394304574 304.76572041082227 396.1006185458199 313.9663534060057Q403.57984278706573 323.1669864011891 404.232790935111 336.8195385875903L404.232790935111 336.8195385875903Q404.648303392958 345.1594672058049 401.7693956493038 354.24138235588913Q398.89048790564965 363.3232975059734 391.08478959038115 371.3367520501654Q383.2790912751127 379.3502065943574 369.18134716958974 384.27699716597175Q355.0836030640668 389.1741082763113 333.0614427981762 389.1741082763113L333.0614427981762 389.1741082763113Q332.2304178824822 389.1741082763113 329.85606098049936 389.1741082763113Q327.5113835397914 389.1741082763113 325.3744623280068 388.9663520473878L325.3744623280068 388.9663520473878L325.3744623280068 419.95170961826346Q325.3744623280068 425.7392045668466 325.28542394418247 429.8943291453165Q325.16670609908334 434.0494537237864 324.75119364123634 436.8393230836162L324.75119364123634 436.8393230836162Q328.16433168783664 436.6315668546927 331.36971350551346 436.42381062576925Q334.5750953231902 436.186374935571 337.8695155246914 436.0973365517466Q341.19361518746734 435.97861870664747 344.3989970051441 435.77086247772394L344.3989970051441 435.77086247772394L344.3989970051441 445.38700793075435L292.0444273164231 445.38700793075435ZM325.3744623280068 329.1325581174209L325.3744623280068 380.21091097132614Q329.4405485226524 380.62642342917314 332.3194562663066 380.74514127427227Q335.1983640099607 380.8638591193714 339.2644502046063 380.8638591193714L339.2644502046063 380.8638591193714Q351.462708788543 380.8638591193714 361.49436669942037 376.05578639285625Q371.5260246102977 371.24771366634104 377.52127578780437 362.2548369000811Q383.51652696531096 353.291639595096 383.51652696531096 340.8856247822358L383.51652696531096 340.8856247822358Q383.51652696531096 330.8539668713584 380.3111451476342 323.7012167041352Q377.10576332995737 316.51878707563725 371.2292299975499 312.15590626824377Q365.35269666514245 307.76334599957556 357.2205242758513 305.7451426328902Q349.0883518865602 303.69725980493 339.2644502046063 303.69725980493L339.2644502046063 303.69725980493Q331.7852259633604 303.69725980493 328.90631821970624 306.90264162260684Q326.0274104760521 310.10802344028366 325.70093640202947 315.7768005437676Q325.3744623280068 321.4455776472516 325.3744623280068 329.1325581174209L325.3744623280068 329.1325581174209Z " fill="green" transform="matrix(0.6887121050007964,0,0,0.6887121050007964,0,44.90994398622087)"/><path d="M598.1648115688645 405.9622521479401L598.1648115688645 401.15287610247003Q603.7016562598678 400.8699716292071 605.7224024974603 398.60673584310354Q607.7633561974287 396.36370751937585 607.9856382835638 392.36262996894277Q608.207920369699 388.3615524185097 608.207920369699 383.26927189977664L608.207920369699 383.26927189977664L608.207920369699 320.4038564482749Q608.207920369699 317.4939818661417 608.3493726063305 314.8063893701438Q608.490824842962 312.1187968741458 608.6322770795935 309.9363909375459L608.6322770795935 309.9363909375459Q606.0255144330991 310.07784317417736 603.3985443242289 310.21929541080885Q600.7917816777347 310.3809551098162 598.1648115688645 310.5224073464477L598.1648115688645 310.5224073464477L598.1648115688645 304.11664177327964Q605.8840621964677 303.97518953664814 614.0276695339653 303.8943596871444Q622.171276871463 303.83373730001665 630.6179961445995 303.83373730001665L630.6179961445995 303.83373730001665Q644.722804882995 303.83373730001665 654.3213495115592 307.02651635541275Q663.9198941401235 310.21929541080885 669.0121746588565 316.4836087473455Q674.1044551775894 322.7479220838822 674.5490193498598 332.0433547768076L674.5490193498598 332.0433547768076Q674.8319238231227 337.72165170444237 672.871799972658 343.9051351914753Q670.9116761221933 350.0886186785083 665.5971135173252 355.54463352000795Q660.282550912457 361.0006483615077 650.6840062838928 364.35508711591115Q641.0854616553286 367.68931840793874 626.0915245723924 367.68931840793874L626.0915245723924 367.68931840793874Q625.5257156258665 367.68931840793874 623.9091186357925 367.68931840793874Q622.3127291080945 367.68931840793874 620.8577918170279 367.54786617130725L620.8577918170279 367.54786617130725L620.8577918170279 388.6444568917726Q620.8577918170279 392.58491205507795 620.7971694299001 395.4139567877074Q620.7163395803964 398.24300152033686 620.4334351071334 400.1425029836738L620.4334351071334 400.1425029836738Q622.7572932803648 400.0010507470423 624.9396992169646 399.8595985104108Q627.1221051535645 399.69793881140345 629.3651334772921 399.63731642427564Q631.6283692633958 399.55648657477195 633.8107751999955 399.4150343381405L633.8107751999955 399.4150343381405L633.8107751999955 405.9622521479401L598.1648115688645 405.9622521479401ZM620.8577918170279 326.80962202144303L620.8577918170279 361.58666477040947Q623.6262141625295 361.8695692436724 625.5863380129942 361.9503990931761Q627.546461863459 362.03122894267983 630.3148842089606 362.03122894267983L630.3148842089606 362.03122894267983Q638.6201512454656 362.03122894267983 645.4502735285282 358.75762003778Q652.2803958115908 355.4840111328802 656.3623032115275 349.361150032975Q660.4442106114643 343.2584963954458 660.4442106114643 334.81177712230925L660.4442106114643 334.81177712230925Q660.4442106114643 327.9816548392467 658.2618046748645 323.1116564066488Q656.0793987382647 318.2214505116751 652.0783211878315 315.2509535424141Q648.0772436373984 312.26024911077724 642.540398946395 310.8861416692144Q637.0035542553917 309.49182676527556 630.3148842089606 309.49182676527556L630.3148842089606 309.49182676527556Q625.2226036902276 309.49182676527556 623.2624798397629 311.67423270187544Q621.3023559892982 313.8566386384753 621.0800739031631 317.7162639522769Q620.8577918170279 321.57588926607855 620.8577918170279 326.80962202144303L620.8577918170279 326.80962202144303ZM683.2786430962592 405.9622521479401L683.2786430962592 401.5974402747404Q687.7849072060906 401.5974402747404 689.542956432796 399.3342044886368Q691.2807981971255 397.09117616490914 691.5637026703885 393.09009861447606Q691.8668146060272 389.089021064043 691.8668146060272 383.8552883086785L691.8668146060272 383.8552883086785L691.8668146060272 315.0286714562789Q691.8668146060272 312.7048132830476 691.927436993155 310.5830297335755Q692.0082668426587 308.48145364647934 692.2911713159217 305.57157906434617L692.2911713159217 305.57157906434617Q689.6844086694274 305.71303130097766 687.1382684100608 305.8544835376091Q684.5921281506944 306.01614323661653 681.9651580418242 306.15759547324797L681.9651580418242 306.15759547324797L681.9651580418242 300.0347343733428Q688.3709236149923 300.0347343733428 691.927436993155 299.4689254268169Q695.5041578336937 298.8829090179151 697.3228294475269 298.0139881357503Q699.1415010613601 297.12485979120964 700.1518741801564 296.1144866724134L700.1518741801564 296.1144866724134L704.3752338167247 296.1144866724134L704.5166860533562 390.54395835510957Q704.5166860533562 393.4538329372427 704.3752338167247 395.69686126097037Q704.2337815800933 397.96009704707393 703.7892174078228 400.42540745693674L703.7892174078228 400.42540745693674Q706.1130755810542 400.28395522030524 708.3763113671577 400.2233328331775Q710.6395471532613 400.1425029836738 712.9634053264928 400.0010507470423L712.9634053264928 400.0010507470423L712.9634053264928 405.9622521479401L683.2786430962592 405.9622521479401ZM789.347613107488 405.9622521479401L768.5339268602855 405.9622521479401Q768.1095701503913 403.4969417380773 767.9479104513838 401.5974402747404Q767.8064582147523 399.69793881140345 767.5235537414893 397.67719257381094L767.5235537414893 397.67719257381094Q762.5727254593879 402.6078133935366 756.8338061446253 405.457065588542Q751.0746793674867 408.28611032117146 744.6689137943184 408.28611032117146L744.6689137943184 408.28611032117146Q733.6154318746877 408.28611032117146 728.2402468826918 403.2746596519421Q722.8448544283198 398.24300152033686 722.8448544283198 390.968315065004L722.8448544283198 390.968315065004Q722.8448544283198 384.27964501857286 727.0075916777604 379.40964658597505Q731.1501214648248 374.5396481533772 737.7579616617523 371.4074914851089Q744.3860093210557 368.27533481684054 752.1658823357867 366.75977513864615Q759.9457553505175 365.22400799807593 767.2204418058506 365.36546023470737L767.2204418058506 365.36546023470737L767.2204418058506 356.3529320150449Q767.2204418058506 351.26065149631194 766.3515209236858 346.75438738648074Q765.4826000415209 342.2279158142736 762.5727254593879 339.31804123214044Q759.6628508772548 336.4081666500073 753.2570853040864 336.2667144133758L753.2570853040864 336.2667144133758Q749.0337256675183 336.12526217674434 744.6082914071907 337.86310394107386Q740.1626496844873 339.6211531677793 738.1216959845189 343.8445128043476L738.1216959845189 343.8445128043476Q739.2937288023226 344.9963381597753 739.6574631250893 346.53210530034556Q740.0211974478558 348.0476649785399 740.0211974478558 349.361150032975L740.0211974478558 349.361150032975Q740.0211974478558 351.11919925968044 738.5662601567893 353.3622275834081Q737.1113228657226 355.6254633695117 733.4739796380562 355.4840111328802L733.4739796380562 355.4840111328802Q730.4226528192916 355.4840111328802 728.8262632915936 353.3622275834081Q727.2096663015196 351.26065149631194 727.2096663015196 348.35077691417877L727.2096663015196 348.35077691417877Q727.2096663015196 343.3999486320772 730.9278393786898 339.4797009311478Q734.6460124558599 335.5392457678425 741.1932302656595 333.2153875946112Q747.7404480754591 330.89152942137986 756.0255076495881 330.89152942137986L756.0255076495881 330.89152942137986Q768.2510223870228 330.89152942137986 774.0707715512889 337.35791738167575Q779.8905207155552 343.8445128043476 779.7490684789237 357.8078693061115L779.7490684789237 357.8078693061115Q779.7490684789237 363.1830542981075 779.7490684789237 368.63906913960716Q779.7490684789237 374.0950839811068 779.6682386294202 379.55109882260655Q779.5874087799165 385.00711366410616 779.5874087799165 390.54395835510957L779.5874087799165 390.54395835510957Q779.5874087799165 392.8678165283409 779.445956543285 395.19167470157225Q779.3045043066535 397.51553287480357 779.0215998333905 400.42540745693674L779.0215998333905 400.42540745693674Q781.6283624798849 400.28395522030524 784.1745027392514 400.1425029836738Q786.7206429986178 400.0010507470423 789.347613107488 399.8595985104108L789.347613107488 399.8595985104108L789.347613107488 405.9622521479401ZM767.2204418058506 370.3162885168089L767.2204418058506 370.3162885168089Q762.2898209861249 370.4577407534404 756.8338061446253 371.54894372174033Q751.3777913031255 372.6401466900403 746.7906973437906 374.8225526266402Q742.2036033844557 377.00495856324 739.3745586518263 380.58167940377865Q736.5253064568209 384.1381927819414 736.6667586934524 389.2304733006744L736.6667586934524 389.2304733006744Q736.9698706290911 394.6056582926704 740.243479533991 397.3134582510443Q743.5170884388907 400.0010507470423 748.0233525487221 400.0010507470423L748.0233525487221 400.0010507470423Q753.9845539496199 400.0010507470423 758.4301956723233 397.73781496093875Q762.8556299326507 395.4947866372111 767.2204418058506 391.4128792372743L767.2204418058506 391.4128792372743Q767.0789895692191 389.8164897095763 767.0789895692191 387.9169882462393Q767.0789895692191 386.0376942452784 767.0789895692191 383.99674054530993L767.0789895692191 383.99674054530993Q767.0789895692191 383.26927189977664 767.1598194187228 379.3288167364713Q767.2204418058506 375.408569035542 767.2204418058506 370.3162885168089ZM810.5856560645849 445.38701124336916L810.5856560645849 445.38701124336916Q806.0793919547538 445.38701124336916 802.8664054369816 443.20460530676934Q799.6736263815857 441.02219937016946 799.6736263815857 436.51593526033827L799.6736263815857 436.51593526033827Q799.6736263815857 433.888965151468 801.4114681459151 431.70655921486815Q803.1695173726206 429.52415327826833 805.9379397181223 429.52415327826833L805.9379397181223 429.52415327826833Q809.4136232467812 429.38270104163684 810.6664859140886 431.70655921486815Q811.8991411190201 434.05062485047546 811.8991411190201 435.788466614805L811.8991411190201 435.788466614805Q811.8991411190201 436.2330307870753 811.8991411190201 436.7382173464734Q811.8991411190201 437.2434039058715 811.7576888823886 437.82942031477336L811.7576888823886 437.82942031477336Q812.1820455922829 438.11232478803635 813.3540784100866 438.11232478803635L813.3540784100866 438.11232478803635Q815.091920174416 438.11232478803635 817.1328738743845 436.65738749696976Q819.1738275743529 435.2024502059032 820.7702171020509 432.4340278604015L820.7702171020509 432.4340278604015Q822.6697185653878 429.24124880500534 825.2158588247545 422.83548323183726Q827.7619990841209 416.4297176586691 830.9547781395171 407.55864167563817L830.9547781395171 407.55864167563817L808.2617978913537 358.95969466153923Q804.4830024270556 350.8160873240416 802.8057830498539 346.02691874094745Q801.1285636726521 341.21754269547733 800.5425472637504 338.893684522246L800.5425472637504 338.893684522246L793.5709727440563 339.17658899550895L793.5709727440563 333.2153875946112L823.680091684184 333.2153875946112L823.680091684184 337.5801994678109L823.0940752752823 337.5801994678109Q816.991421637753 338.0247636400813 816.4054052288512 342.1672934271458Q815.8193888199495 346.3098232142104 819.7598439832547 354.7565424873469L819.7598439832547 354.7565424873469L836.7745273037834 391.27142700064286Q840.1289660581868 381.95578684534155 843.1802928769515 372.8624287761755Q846.2316196957162 363.76907070700935 849.2829465144806 354.7565424873469L849.2829465144806 354.7565424873469Q850.4549793322843 351.54355596957487 851.6876345372158 348.1284948280436Q852.9202897421472 344.71343368651236 854.1529449470785 342.0258411905143Q855.4058076143859 339.31804123214044 856.4161807331822 338.59057258660715L856.4161807331822 338.59057258660715L846.3730719323477 339.17658899550895L846.3730719323477 333.2153875946112L869.2277118795183 333.2153875946112L869.2277118795183 337.5801994678109Q863.8323194251465 339.6211531677793 861.1447269291485 344.3496993637457Q858.4571344331506 349.07824555971206 855.6887120876489 356.4943842516764L855.6887120876489 356.4943842516764L837.5019959493167 407.2757372023752Q833.1371840761168 419.50125193980966 829.4998408484504 428.008593600074Q825.862497620784 436.51593526033827 821.4976857475843 440.96157698304165Q817.1328738743845 445.38701124336916 810.5856560645849 445.38701124336916ZM874.7443491081459 405.9622521479401L874.7443491081459 401.5974402747404Q879.250613217977 401.5974402747404 881.0086624446825 399.3342044886368Q882.746504209012 397.09117616490914 883.0496161446509 393.09009861447606Q883.3325206179139 389.089021064043 883.3325206179139 383.8552883086785L883.3325206179139 383.8552883086785L883.3325206179139 315.0286714562789Q883.3325206179139 312.7048132830476 883.4133504674174 310.5830297335755Q883.4739728545454 308.48145364647934 883.7770847901842 305.57157906434617L883.7770847901842 305.57157906434617Q881.150114681314 305.71303130097766 878.6039744219476 305.8544835376091Q876.0578341625809 306.01614323661653 873.4308640537107 306.15759547324797L873.4308640537107 306.15759547324797L873.4308640537107 300.0347343733428Q879.8366296268788 300.0347343733428 883.4133504674174 299.4689254268169Q886.9698638455803 298.8829090179151 888.7885354594135 298.0139881357503Q890.6072070732467 297.12485979120964 891.617580192043 296.1144866724134L891.617580192043 296.1144866724134L895.8409398286113 296.1144866724134L895.9823920652426 390.54395835510957Q895.9823920652426 393.4538329372427 895.8409398286113 395.69686126097037Q895.6994875919798 397.96009704707393 895.2549234197094 400.42540745693674L895.2549234197094 400.42540745693674Q897.5989890553166 400.28395522030524 899.8420173790443 400.2233328331775Q902.1052531651479 400.1425029836738 904.4291113383794 400.0010507470423L904.4291113383794 400.0010507470423L904.4291113383794 405.9622521479401L874.7443491081459 405.9622521479401ZM915.7857051936488 405.9622521479401L915.7857051936488 401.5974402747404Q920.2919693034802 401.5974402747404 922.0298110678096 399.3342044886368Q923.7878602945151 397.09117616490914 924.0707647677781 393.09009861447606Q924.3536692410411 389.089021064043 924.3536692410411 383.8552883086785L924.3536692410411 383.8552883086785L924.3536692410411 350.67463508741014Q924.3536692410411 348.35077691417877 924.5153289400483 346.2289933647067Q924.6567811766798 344.1274172776105 924.9396856499428 341.21754269547733L924.9396856499428 341.21754269547733Q922.3329230034484 341.3589949321088 919.786782744082 341.5004471687403Q917.2406424847155 341.6621068677477 914.6136723758453 341.8035591043792L914.6136723758453 341.8035591043792L914.6136723758453 335.680698004474Q921.0194379490134 335.680698004474 924.5153289400483 335.1148890579481Q927.9910124687075 334.52887264904626 929.8096840825407 333.65995176688153Q931.6283556963739 332.7708234223408 932.6589362775461 331.7604503035446L932.6589362775461 331.7604503035446L936.8822959141143 331.7604503035446L936.8822959141143 390.54395835510957Q936.8822959141143 393.4538329372427 936.8014660646105 395.69686126097037Q936.720636215107 397.96009704707393 936.2962795052125 400.42540745693674L936.2962795052125 400.42540745693674Q938.6201376784437 400.28395522030524 940.8833734645474 400.2233328331775Q943.1264017882751 400.1425029836738 945.4502599615063 400.0010507470423L945.4502599615063 400.0010507470423L945.4502599615063 405.9622521479401L915.7857051936488 405.9622521479401ZM929.7490616954129 317.3525296295103L929.7490616954129 317.3525296295103Q926.6977348766483 317.3525296295103 924.3536692410411 314.8872192196475Q922.0298110678096 312.40170134740873 922.0298110678096 308.76435811974227L922.0298110678096 308.76435811974227Q922.0298110678096 305.12701489207586 924.4344990905446 302.5808746327093Q926.8391871132798 300.0347343733428 929.8905139320444 300.0347343733428L929.8905139320444 300.0347343733428Q933.2449526864478 300.0347343733428 935.4879810101755 302.5808746327093Q937.751216796279 305.12701489207586 937.751216796279 308.76435811974227L937.751216796279 308.76435811974227Q937.751216796279 312.40170134740873 935.346528773544 314.8872192196475Q932.9418407508091 317.3525296295103 929.7490616954129 317.3525296295103ZM986.4916160470094 408.28611032117146L986.4916160470094 408.28611032117146Q979.2169295916766 408.28611032117146 973.5386326640418 406.32598647070677Q967.8603357364069 404.36586262024207 964.2229925087405 401.8803447480033L964.2229925087405 401.8803447480033L964.8090089176422 406.9726252667363L958.7063552801129 406.9726252667363L957.8172269355722 381.95578684534155L962.3436985077795 381.95578684534155Q962.6266029810423 387.9169882462393 965.677929799807 392.6455344422057Q968.7292566185716 397.3740806381721 973.5386326640418 400.0010507470423Q978.3480087095119 402.6078133935366 983.8646459381392 402.6078133935366L983.8646459381392 402.6078133935366Q987.6434414024371 402.6078133935366 991.2807846301035 401.3751581886052Q994.9181278577702 400.1425029836738 997.4036457300089 397.5963627243073Q999.8689561398716 395.05022246494076 999.8689561398716 391.12997476401137L999.8689561398716 391.12997476401137Q999.8689561398716 387.0480673640746 997.4642681171366 384.3604748680766Q995.0797875567774 381.6728823720786 991.139332393472 379.63192867211023Q987.2190846925429 377.59097497214185 982.7128205827115 375.8531332078123L982.7128205827115 375.8531332078123Q978.3480087095119 374.0950839811068 973.983196836312 372.21578998014587Q969.6183849631124 370.3162885168089 965.9002118859422 367.68931840793874Q962.1820388087721 365.08255576144444 959.9996328721721 361.30376029714654Q957.8172269355722 357.50475737047265 957.8172269355722 351.98812014184523L957.8172269355722 351.98812014184523Q957.8172269355722 348.9367933230806 958.9892597533759 345.29945009541416Q960.1612925711796 341.6621068677477 962.9095074543053 338.3884979628479Q965.677929799807 335.1148890579481 970.4873058452771 332.993105508476Q975.2764744283712 330.89152942137986 982.7128205827115 330.89152942137986L982.7128205827115 330.89152942137986Q986.6330682836409 330.89152942137986 991.442444329111 332.20501447581495Q996.2316129122052 333.4982920678741 1000.7378770220363 337.13563529554057L1000.7378770220363 337.13563529554057L1000.4549725487733 331.6189980669131L1006.5576261863026 331.6189980669131L1006.5576261863026 357.0804006605783L1001.90990983984 357.0804006605783Q1001.627005366577 351.98812014184523 999.5860516666088 347.25957394587886Q997.5450979666401 342.5310277499125 993.624850265711 339.39887108164413Q989.6843951024056 336.2667144133758 983.4402892282448 336.2667144133758L983.4402892282448 336.2667144133758Q976.7314117194379 336.2667144133758 972.95261625514 339.6211531677793Q969.1738207908419 342.9553844598069 969.1738207908419 347.3201963330066L969.1738207908419 347.3201963330066Q969.1738207908419 351.84666790521374 972.0028655234715 354.81716487447466Q974.8521177184767 357.8078693061115 979.3583818283081 359.9902752427114Q983.8646459381392 362.17268117931127 988.9569264568723 364.2136348792797L988.9569264568723 364.2136348792797Q994.4937711478757 366.537493052511 999.7275039032401 369.3059153980127Q1004.9612366586047 372.05413028113844 1008.3156754130081 376.21686753057895Q1011.6499067050357 380.3593973176435 1011.6499067050357 386.9066151274431L1011.6499067050357 386.9066151274431Q1011.6499067050357 394.18130158277603 1007.9519410902416 398.97047016587015Q1004.2337680130714 403.77984621134027 998.4948486983088 406.04308199744384Q992.7357219211702 408.28611032117146 986.4916160470094 408.28611032117146ZM1051.3777777361038 408.28611032117146L1051.3777777361038 408.28611032117146Q1048.0233389817004 408.28611032117146 1044.547655453041 407.336359589503Q1041.0517644620063 406.40681632021045 1038.0610600303694 403.6383939747088Q1035.0905630611082 400.8699716292071 1033.332513834403 395.55540902433887Q1031.5946720700736 390.2408464194707 1031.5946720700736 381.51122267307125L1031.5946720700736 381.51122267307125L1031.8775765433365 339.31804123214044L1020.682642387074 339.4797009311478L1020.682642387074 333.2153875946112Q1024.461437851372 333.0739353579797 1028.3816855523014 330.38634286198175Q1032.3221407156066 327.6785429036078 1035.4542973838752 323.03082655714513Q1038.5662465897676 318.38311021068245 1039.738279407571 312.8462655196791L1039.738279407571 312.8462655196791L1044.6891076896727 312.8462655196791L1044.6891076896727 333.2153875946112L1069.1199297021658 333.2153875946112L1069.1199297021658 338.893684522246L1044.6891076896727 339.17658899550895L1044.3859957540335 379.63192867211023Q1044.3859957540335 386.1791464819098 1045.4771987223335 390.76624044124475Q1046.5684016906334 395.3331269382037 1049.0539195628721 397.67719257381094Q1051.519229972735 400.0010507470423 1055.4596851360407 400.0010507470423L1055.4596851360407 400.0010507470423Q1059.5213850736013 400.0010507470423 1063.09810591414 397.67719257381094Q1066.6546192923029 395.3331269382037 1069.4230416378045 391.27142700064286L1069.4230416378045 391.27142700064286L1073.343289338734 394.46420605603896Q1070.1505102833376 399.273582101509 1067.0183536150694 402.0420044470107Q1063.8861969468012 404.7902193301365 1060.9763223646678 406.1845342340753Q1058.0664477825349 407.55864167563817 1055.601137372672 407.9223759984048Q1053.1156195004332 408.28611032117146 1051.3777777361038 408.28611032117146ZM1135.319576445695 363.9105229436408L1083.6693026128314 364.49653935254264L1083.6693026128314 354.31197831507654L1135.319576445695 354.31197831507654L1135.319576445695 363.9105229436408ZM1160.6395268027286 333.2153875946112L1160.6395268027286 330.16406077584656Q1160.6395268027286 314.0182983374827 1166.5401058164985 304.7026581821814Q1172.4204773678925 295.3870180268801 1186.828398041927 295.3870180268801L1186.828398041927 295.3870180268801Q1190.041384559699 295.3870180268801 1193.597897937862 296.4782209951801Q1197.1544113160244 297.56942396348 1199.7813814248948 299.974111986215Q1202.4083515337647 302.37880000895007 1202.4083515337647 306.15759547324797L1202.4083515337647 306.15759547324797Q1202.4083515337647 308.92601781874964 1200.8725843931948 310.80531181971065Q1199.3368172526243 312.7048132830476 1196.426942670491 312.7048132830476L1196.426942670491 312.7048132830476Q1192.951259141832 312.8462655196791 1191.5569442378933 310.5830297335755Q1190.1828367963303 308.34000140984784 1190.1828367963303 306.7436118821498L1190.1828367963303 306.7436118821498Q1190.1828367963303 305.8544835376091 1190.324289032962 304.98556265544437Q1190.4657412695933 304.11664177327964 1190.9103054418638 303.10626865448336L1190.9103054418638 303.10626865448336Q1189.8797248606916 301.79278360004827 1188.0610532468581 301.20676719114647Q1186.2423816330252 300.6207507822446 1184.645992105327 300.6207507822446L1184.645992105327 300.6207507822446Q1180.1397279954958 300.6207507822446 1177.674417585633 303.24772089111485Q1175.1888997133942 305.8544835376091 1174.1785265945982 309.79493870091443Q1173.147946013426 313.7151864018438 1173.147946013426 317.9385460384121L1173.147946013426 317.9385460384121L1173.147946013426 333.2153875946112L1192.789599442825 333.2153875946112L1192.789599442825 338.893684522246L1173.147946013426 339.31804123214044L1173.309605712433 390.54395835510957Q1173.309605712433 393.4538329372427 1173.2287758629295 395.69686126097037Q1173.147946013426 397.96009704707393 1172.7235893035318 400.42540745693674L1172.7235893035318 400.42540745693674Q1175.047447476763 400.28395522030524 1177.3106832628664 400.2233328331775Q1179.553711586594 400.1425029836738 1181.8775697598253 400.0010507470423L1181.8775697598253 400.0010507470423L1181.8775697598253 405.9622521479401L1152.213014991968 405.9622521479401L1152.213014991968 401.5974402747404Q1156.7192791017992 401.5974402747404 1158.4571208661287 399.3342044886368Q1160.215170092834 397.09117616490914 1160.4980745660969 393.09009861447606Q1160.7809790393599 389.089021064043 1160.7809790393599 383.8552883086785L1160.7809790393599 383.8552883086785L1160.6395268027286 339.4797009311478L1148.717124000933 339.7626054044108L1148.717124000933 333.2153875946112L1160.6395268027286 333.2153875946112ZM1211.8654439256975 445.38701124336916L1211.8654439256975 445.38701124336916Q1207.3389723534906 445.38701124336916 1204.1461932980942 443.20460530676934Q1200.9534142426983 441.02219937016946 1200.9534142426983 436.51593526033827L1200.9534142426983 436.51593526033827Q1200.9534142426983 433.888965151468 1202.6912560070277 431.70655921486815Q1204.4290977713572 429.52415327826833 1207.1975201168589 429.52415327826833L1207.1975201168589 429.52415327826833Q1210.693411107894 429.38270104163684 1211.9260663128252 431.70655921486815Q1213.158721517757 434.05062485047546 1213.158721517757 435.788466614805L1213.158721517757 435.788466614805Q1213.158721517757 436.2330307870753 1213.158721517757 436.7382173464734Q1213.158721517757 437.2434039058715 1213.0172692811252 437.82942031477336L1213.0172692811252 437.82942031477336Q1213.4618334533957 438.11232478803635 1214.6136588088234 438.11232478803635L1214.6136588088234 438.11232478803635Q1216.3717080355286 438.11232478803635 1218.4126617354973 436.65738749696976Q1220.4334079730897 435.2024502059032 1222.0500049631637 432.4340278604015L1222.0500049631637 432.4340278604015Q1223.9292989641244 429.24124880500534 1226.4754392234913 422.83548323183726Q1229.0215794828578 416.4297176586691 1232.23456600063 407.55864167563817L1232.23456600063 407.55864167563817L1209.5213782900905 358.95969466153923Q1205.7425828257924 350.8160873240416 1204.0653634485907 346.02691874094745Q1202.4083515337647 341.21754269547733 1201.822335124863 338.893684522246L1201.822335124863 338.893684522246L1194.8305531427932 339.17658899550895L1194.8305531427932 333.2153875946112L1224.9598795452966 333.2153875946112L1224.9598795452966 337.5801994678109L1224.373863136395 337.5801994678109Q1218.2510020364898 338.0247636400813 1217.6851930899638 342.1672934271458Q1217.099176681062 346.3098232142104 1221.0194243819915 354.7565424873469L1221.0194243819915 354.7565424873469L1238.0543151648963 391.27142700064286Q1241.3885464569235 381.95578684534155 1244.4398732756881 372.8624287761755Q1247.511407556829 363.76907070700935 1250.5627343755937 354.7565424873469L1250.5627343755937 354.7565424873469Q1251.714559731021 351.54355596957487 1252.9674223983284 348.1284948280436Q1254.20007760326 344.71343368651236 1255.4327328081913 342.0258411905143Q1256.6653880131225 339.31804123214044 1257.6959685942948 338.59057258660715L1257.6959685942948 338.59057258660715L1247.6528597934603 339.17658899550895L1247.6528597934603 333.2153875946112L1270.4872922782552 333.2153875946112L1270.4872922782552 337.5801994678109Q1265.1121072862593 339.6211531677793 1262.4245147902611 344.3496993637457Q1259.7167148318872 349.07824555971206 1256.9684999487617 356.4943842516764L1256.9684999487617 356.4943842516764L1238.7817838104293 407.2757372023752Q1234.4169719372294 419.50125193980966 1230.779628709563 428.008593600074Q1227.1422854818966 436.51593526033827 1222.7774736086972 440.96157698304165Q1218.4126617354973 445.38701124336916 1211.8654439256975 445.38701124336916Z " fill="white" transform="matrix(0.6887121050007964,0,0,0.6887121050007964,0,44.90994398622087)"/></g></svg>